<svg version="1.1" xmlns="http://www.w3.org/2000/svg" viewBox="0 0 1659.8333333333321 747.1311912935562" width="1659.8333333333321" height="747.1311912935562">
  <!-- svg-source:excalidraw -->
  
  <defs>
    <style class="style-fonts">
      @font-face {
        font-family: "Virgil";
        src: url("https://excalidraw.com/Virgil.woff2");
      }
      @font-face {
        font-family: "Cascadia";
        src: url("https://excalidraw.com/Cascadia.woff2");
      }
    </style>
  </defs>
  <rect x="0" y="0" width="1659.8333333333321" height="747.1311912935562" fill="#ffffff"></rect><g stroke-linecap="round" transform="translate(10 12.333333333333485) rotate(0 145 154.5)"><path d="M32 0 M32 0 C86.51 -1.43, 136.66 0.38, 258 0 M32 0 C78.05 -1.01, 124.29 -1.07, 258 0 M258 0 C279.99 -0.91, 290.15 12.66, 290 32 M258 0 C278.31 0.82, 291.47 11.31, 290 32 M290 32 C290.66 119.45, 291.4 205.69, 290 277 M290 32 C289.46 123.49, 290.46 215.98, 290 277 M290 277 C288.27 299.5, 278.25 310.41, 258 309 M290 277 C288.21 298.47, 279.4 308.11, 258 309 M258 309 C200.89 307.55, 145.93 309.19, 32 309 M258 309 C171.37 307.93, 82.72 307.41, 32 309 M32 309 C11.15 309.88, -1.3 297.19, 0 277 M32 309 C10.04 311, 2.13 296.79, 0 277 M0 277 C-0.68 200.72, -2.79 124.25, 0 32 M0 277 C0.08 181.53, 0.96 88.22, 0 32 M0 32 C1.09 8.75, 12.63 -1.12, 32 0 M0 32 C0.09 11.81, 11.67 1.52, 32 0" stroke="#1e1e1e" stroke-width="1" fill="none"></path></g><g transform="translate(82.25006103515625 104.33333333333348) rotate(0 72.74993896484375 62.5)"><text x="72.74993896484375" y="0" font-family="Virgil, Segoe UI Emoji" font-size="20px" fill="#1e1e1e" text-anchor="middle" style="white-space: pre;" direction="ltr" dominant-baseline="text-before-edge">class/Recorder</text><text x="72.74993896484375" y="25" font-family="Virgil, Segoe UI Emoji" font-size="20px" fill="#1e1e1e" text-anchor="middle" style="white-space: pre;" direction="ltr" dominant-baseline="text-before-edge"></text><text x="72.74993896484375" y="50" font-family="Virgil, Segoe UI Emoji" font-size="20px" fill="#1e1e1e" text-anchor="middle" style="white-space: pre;" direction="ltr" dominant-baseline="text-before-edge">openStream</text><text x="72.74993896484375" y="75" font-family="Virgil, Segoe UI Emoji" font-size="20px" fill="#1e1e1e" text-anchor="middle" style="white-space: pre;" direction="ltr" dominant-baseline="text-before-edge">stopRecording</text><text x="72.74993896484375" y="100" font-family="Virgil, Segoe UI Emoji" font-size="20px" fill="#1e1e1e" text-anchor="middle" style="white-space: pre;" direction="ltr" dominant-baseline="text-before-edge">SaveAsWav</text></g><g stroke-linecap="round" transform="translate(685.6666666666666 12.833333333333485) rotate(0 145 154.5)"><path d="M32 0 M32 0 C96.75 0.07, 162.77 1.89, 258 0 M32 0 C94.35 0.14, 157.53 -0.5, 258 0 M258 0 C279.55 -1.14, 289.95 9.35, 290 32 M258 0 C279.29 -0.65, 289.13 8.39, 290 32 M290 32 C289.65 101.03, 290.57 169.62, 290 277 M290 32 C290.18 118.65, 290.09 206.08, 290 277 M290 277 C289 298.36, 279.81 308.74, 258 309 M290 277 C288.93 299.74, 279.31 308.19, 258 309 M258 309 C182.57 310.37, 110.56 309.55, 32 309 M258 309 C186.66 310.65, 114.22 310.12, 32 309 M32 309 C11.13 307.63, -1.08 298.03, 0 277 M32 309 C12.74 310.06, 1.12 300.15, 0 277 M0 277 C-0.36 206.88, -0.64 135.99, 0 32 M0 277 C-1.9 210.48, -0.59 143.49, 0 32 M0 32 C1.02 9.21, 11.75 -1.65, 32 0 M0 32 C-2.07 11.19, 12.16 1.29, 32 0" stroke="#1e1e1e" stroke-width="1" fill="none"></path></g><g transform="translate(760.396738688151 117.33333333333348) rotate(0 70.26992797851562 50)"><text x="70.26992797851562" y="0" font-family="Virgil, Segoe UI Emoji" font-size="20px" fill="#1e1e1e" text-anchor="middle" style="white-space: pre;" direction="ltr" dominant-baseline="text-before-edge">class/Whisper</text><text x="70.26992797851562" y="25" font-family="Virgil, Segoe UI Emoji" font-size="20px" fill="#1e1e1e" text-anchor="middle" style="white-space: pre;" direction="ltr" dominant-baseline="text-before-edge">(model, device)</text><text x="70.26992797851562" y="50" font-family="Virgil, Segoe UI Emoji" font-size="20px" fill="#1e1e1e" text-anchor="middle" style="white-space: pre;" direction="ltr" dominant-baseline="text-before-edge"></text><text x="70.26992797851562" y="75" font-family="Virgil, Segoe UI Emoji" font-size="20px" fill="#1e1e1e" text-anchor="middle" style="white-space: pre;" direction="ltr" dominant-baseline="text-before-edge">SpeechToText</text></g><g stroke-linecap="round" transform="translate(353.6666666666664 16.166666666666856) rotate(0 145 154.50000000000006)"><path d="M32 0 M32 0 C97.74 -1.37, 163.74 -0.81, 258 0 M32 0 C81.51 1.33, 131.1 1.21, 258 0 M258 0 C278.02 -0.04, 289.43 9.91, 290 32 M258 0 C277.06 -0.38, 290.93 12.89, 290 32 M290 32 C288.09 89.1, 288.95 145.49, 290 277 M290 32 C290.21 128.46, 289.69 225.94, 290 277 M290 277 C289.74 297.4, 280.56 308.98, 258 309 M290 277 C289.19 299.02, 281.47 309.51, 258 309 M258 309 C201.74 311.22, 144.48 311.83, 32 309 M258 309 C174.83 309.36, 90.92 308.7, 32 309 M32 309 C10.36 310.81, 0.92 299.31, 0 277 M32 309 C12.48 308.75, -0.33 299.49, 0 277 M0 277 C-0.25 212.71, 0.31 149.94, 0 32 M0 277 C-0.58 218.8, -1.24 160.2, 0 32 M0 32 C-1.65 8.86, 11.12 1.3, 32 0 M0 32 C1.29 10.81, 9.63 -0.93, 32 0" stroke="#1e1e1e" stroke-width="1" fill="none"></path></g><g transform="translate(413.9167429606117 83.16666666666686) rotate(0 84.74992370605469 87.5)"><text x="84.74992370605469" y="0" font-family="Virgil, Segoe UI Emoji" font-size="20px" fill="#1e1e1e" text-anchor="middle" style="white-space: pre;" direction="ltr" dominant-baseline="text-before-edge">class/btnListener</text><text x="84.74992370605469" y="25" font-family="Virgil, Segoe UI Emoji" font-size="20px" fill="#1e1e1e" text-anchor="middle" style="white-space: pre;" direction="ltr" dominant-baseline="text-before-edge">(targetKey)</text><text x="84.74992370605469" y="50" font-family="Virgil, Segoe UI Emoji" font-size="20px" fill="#1e1e1e" text-anchor="middle" style="white-space: pre;" direction="ltr" dominant-baseline="text-before-edge"></text><text x="84.74992370605469" y="75" font-family="Virgil, Segoe UI Emoji" font-size="20px" fill="#1e1e1e" text-anchor="middle" style="white-space: pre;" direction="ltr" dominant-baseline="text-before-edge">registerListener</text><text x="84.74992370605469" y="100" font-family="Virgil, Segoe UI Emoji" font-size="20px" fill="#1e1e1e" text-anchor="middle" style="white-space: pre;" direction="ltr" dominant-baseline="text-before-edge">on_press</text><text x="84.74992370605469" y="125" font-family="Virgil, Segoe UI Emoji" font-size="20px" fill="#1e1e1e" text-anchor="middle" style="white-space: pre;" direction="ltr" dominant-baseline="text-before-edge">on_release</text><text x="84.74992370605469" y="150" font-family="Virgil, Segoe UI Emoji" font-size="20px" fill="#1e1e1e" text-anchor="middle" style="white-space: pre;" direction="ltr" dominant-baseline="text-before-edge"></text></g><g stroke-linecap="round" transform="translate(1020.8888888888888 11.722222222222399) rotate(0 145 154.5)"><path d="M32 0 M32 0 C92.65 0.4, 151.83 -1.34, 258 0 M32 0 C106.56 0.64, 180.48 1.62, 258 0 M258 0 C277.39 1.55, 288.07 9.48, 290 32 M258 0 C279.58 -1.63, 289.43 8.62, 290 32 M290 32 C287.33 83.45, 287.75 136.23, 290 277 M290 32 C288.54 109.2, 288.82 186.32, 290 277 M290 277 C290.25 297.8, 279.98 308.72, 258 309 M290 277 C292.17 297.01, 281.03 307.98, 258 309 M258 309 C190.63 309.27, 125.1 312.2, 32 309 M258 309 C187.24 307.47, 115.02 307.84, 32 309 M32 309 C9.19 308.87, -0.45 297.43, 0 277 M32 309 C11.29 308.57, 0.11 297.24, 0 277 M0 277 C2.08 184.32, 2.92 95.37, 0 32 M0 277 C0.1 190.35, -0.45 104.08, 0 32 M0 32 C1.5 12.17, 9.63 -1.71, 32 0 M0 32 C-2.15 12.58, 9.77 1.13, 32 0" stroke="#1e1e1e" stroke-width="1" fill="none"></path></g><g transform="translate(1060.6989932590059 116.2222222222224) rotate(0 105.18989562988281 50)"><text x="105.18989562988281" y="0" font-family="Virgil, Segoe UI Emoji" font-size="20px" fill="#1e1e1e" text-anchor="middle" style="white-space: pre;" direction="ltr" dominant-baseline="text-before-edge">class/VOICEVOX</text><text x="105.18989562988281" y="25" font-family="Virgil, Segoe UI Emoji" font-size="20px" fill="#1e1e1e" text-anchor="middle" style="white-space: pre;" direction="ltr" dominant-baseline="text-before-edge">(speaker, serverUrl)</text><text x="105.18989562988281" y="50" font-family="Virgil, Segoe UI Emoji" font-size="20px" fill="#1e1e1e" text-anchor="middle" style="white-space: pre;" direction="ltr" dominant-baseline="text-before-edge"></text><text x="105.18989562988281" y="75" font-family="Virgil, Segoe UI Emoji" font-size="20px" fill="#1e1e1e" text-anchor="middle" style="white-space: pre;" direction="ltr" dominant-baseline="text-before-edge">TextToSpeech (text)</text></g><g stroke-linecap="round" transform="translate(22.61111111111086 452.2777777777778) rotate(0 65.00816993464048 60.55555555555554)"><path d="M44.59 2.95 C53.55 -0.43, 67 -0.25, 76.89 1.44 C86.78 3.13, 96.2 7.48, 103.95 13.08 C111.69 18.68, 118.98 26.77, 123.37 35.04 C127.75 43.3, 130.77 53.14, 130.25 62.67 C129.72 72.2, 125.48 83.86, 120.22 92.24 C114.95 100.62, 106.99 108, 98.67 112.93 C90.34 117.87, 80.25 121.4, 70.28 121.85 C60.31 122.3, 48.28 119.53, 38.84 115.62 C29.4 111.71, 19.98 105.65, 13.66 98.41 C7.33 91.16, 2.8 81.36, 0.91 72.17 C-0.97 62.98, -0.76 52.35, 2.35 43.26 C5.46 34.17, 11.14 24.66, 19.55 17.62 C27.96 10.58, 46.12 3.74, 52.81 1.04 C59.51 -1.66, 59.7 0.52, 59.71 1.41 M66.43 -1.1 C75.91 -1.36, 87.86 4.16, 96.57 9.08 C105.27 14, 112.99 20.91, 118.66 28.43 C124.33 35.95, 129.5 44.82, 130.59 54.22 C131.68 63.62, 129.2 76.18, 125.21 84.84 C121.21 93.49, 114.61 100.54, 106.65 106.15 C98.68 111.75, 87.32 116.2, 77.4 118.46 C67.48 120.73, 56.44 122.04, 47.11 119.73 C37.78 117.43, 28.58 111.34, 21.42 104.63 C14.25 97.92, 7.52 88.43, 4.12 79.47 C0.72 70.52, -0.61 60.06, 1.03 50.91 C2.67 41.77, 7.99 32.23, 13.93 24.61 C19.88 16.99, 28.06 9.16, 36.7 5.18 C45.33 1.2, 60.59 1.32, 65.74 0.73 C70.89 0.14, 67.47 0.62, 67.58 1.66" stroke="#1e1e1e" stroke-width="1" fill="none"></path></g><g transform="translate(59.30158766650209 500.5140893614813) rotate(0 28.3499755859375 12.5)"><text x="28.3499755859375" y="0" font-family="Virgil, Segoe UI Emoji" font-size="20px" fill="#1e1e1e" text-anchor="middle" style="white-space: pre;" direction="ltr" dominant-baseline="text-before-edge">Start</text></g><g stroke-linecap="round" transform="translate(233.15849673202592 457.2777777777777) rotate(0 65.00816993464048 60.55555555555554)"><path d="M52.85 0.33 C61.87 -2.11, 73.85 -0.25, 83.35 2.69 C92.85 5.63, 102.45 11.61, 109.86 17.97 C117.26 24.34, 124.57 31.91, 127.78 40.88 C130.98 49.84, 130.84 62.32, 129.07 71.76 C127.29 81.2, 123.32 90.2, 117.1 97.49 C110.87 104.78, 100.81 111.63, 91.73 115.49 C82.65 119.35, 72.42 121.1, 62.62 120.66 C52.82 120.21, 41.75 117.5, 32.93 112.84 C24.11 108.17, 15.31 100.53, 9.69 92.67 C4.07 84.81, -0.16 75, -0.8 65.68 C-1.45 56.35, 1.61 45.49, 5.82 36.72 C10.02 27.96, 14.93 19.3, 24.45 13.09 C33.96 6.88, 54.93 1.36, 62.91 -0.54 C70.88 -2.43, 72.32 0.58, 72.31 1.73 M93.58 6.33 C102.62 9.36, 111.93 16.26, 117.88 23.8 C123.83 31.34, 127.73 42.06, 129.28 51.55 C130.84 61.03, 130.18 72.16, 127.2 80.7 C124.21 89.24, 118.81 96.7, 111.36 102.79 C103.92 108.88, 92.27 114.52, 82.53 117.24 C72.79 119.96, 62.57 120.51, 52.91 119.09 C43.24 117.67, 32.53 114.51, 24.53 108.73 C16.54 102.94, 8.95 93.1, 4.95 84.4 C0.94 75.71, -0.12 66.11, 0.5 56.55 C1.12 46.99, 3.16 35.03, 8.68 27.03 C14.2 19.03, 24.75 12.95, 33.62 8.57 C42.49 4.19, 52.25 1.03, 61.91 0.78 C71.57 0.53, 86.36 6.1, 91.56 7.05 C96.76 7.99, 93.28 5.6, 93.1 6.46" stroke="#1e1e1e" stroke-width="1" fill="none"></path></g><g transform="translate(276.2289629114406 505.5140893614812) rotate(0 21.969985961914062 12.5)"><text x="21.969985961914062" y="0" font-family="Virgil, Segoe UI Emoji" font-size="20px" fill="#1e1e1e" text-anchor="middle" style="white-space: pre;" direction="ltr" dominant-baseline="text-before-edge">Wait</text></g><g stroke-linecap="round" transform="translate(460.93627450980387 452.83333333333326) rotate(0 65.00816993464048 60.55555555555554)"><path d="M69.26 0.18 C78.81 -0.23, 89.06 3.9, 97.76 8.82 C106.45 13.74, 115.93 21.56, 121.42 29.69 C126.92 37.83, 130.37 48.42, 130.72 57.63 C131.08 66.83, 127.9 76.64, 123.57 84.91 C119.25 93.19, 112.42 101.28, 104.79 107.28 C97.16 113.29, 87.5 119.11, 77.78 120.94 C68.07 122.77, 56.14 121.09, 46.5 118.27 C36.86 115.45, 27.12 110.78, 19.94 104.03 C12.77 97.28, 6.56 86.68, 3.47 77.78 C0.37 68.87, -0.22 59.84, 1.37 50.61 C2.96 41.38, 6.79 29.87, 13.01 22.42 C19.23 14.97, 28.86 9.65, 38.68 5.89 C48.51 2.12, 65.93 0.48, 71.95 -0.17 C77.97 -0.83, 75.09 0.84, 74.8 1.96 M70.66 0.25 C80.61 -0.09, 91.87 3.97, 100.52 8.84 C109.18 13.71, 117.72 21.05, 122.62 29.46 C127.52 37.86, 129.59 49.8, 129.92 59.29 C130.24 68.78, 129.12 78.35, 124.57 86.4 C120.03 94.46, 110.81 101.86, 102.64 107.64 C94.47 113.41, 85.26 119.57, 75.56 121.06 C65.86 122.55, 54.15 119.5, 44.44 116.58 C34.73 113.67, 24.07 110.31, 17.3 103.54 C10.53 96.78, 6.25 85.27, 3.8 75.99 C1.36 66.72, 0.76 56.68, 2.62 47.87 C4.48 39.06, 8.85 30.07, 14.95 23.11 C21.05 16.15, 29.86 10.17, 39.22 6.11 C48.57 2.06, 65.97 -0.3, 71.09 -1.22 C76.22 -2.14, 70.43 -0.89, 69.98 0.6" stroke="#1e1e1e" stroke-width="1" fill="none"></path></g><g transform="translate(493.7367593049412 488.5696449170367) rotate(0 32.23996734619146 25)"><text x="32.239967346191406" y="0" font-family="Virgil, Segoe UI Emoji" font-size="20px" fill="#1e1e1e" text-anchor="middle" style="white-space: pre;" direction="ltr" dominant-baseline="text-before-edge">Press </text><text x="32.239967346191406" y="25" font-family="Virgil, Segoe UI Emoji" font-size="20px" fill="#1e1e1e" text-anchor="middle" style="white-space: pre;" direction="ltr" dominant-baseline="text-before-edge">Key</text></g><g stroke-linecap="round" transform="translate(690.9362745098043 448.3888888888889) rotate(0 65.00816993464048 60.55555555555554)"><path d="M41.41 4.73 C49.86 0.65, 62.4 -0.93, 72.58 0.09 C82.75 1.12, 94.29 5.47, 102.48 10.88 C110.67 16.29, 117.13 24.21, 121.72 32.56 C126.31 40.91, 129.75 51.57, 130 60.95 C130.25 70.34, 127.76 80.68, 123.23 88.89 C118.7 97.1, 111.14 104.89, 102.83 110.2 C94.52 115.51, 83.44 119.43, 73.36 120.75 C63.28 122.07, 51.78 121.29, 42.36 118.1 C32.94 114.9, 23.47 108.81, 16.83 101.56 C10.2 94.3, 4.9 83.94, 2.55 74.57 C0.2 65.19, 0.45 54.42, 2.72 45.33 C4.98 36.24, 8.32 27.17, 16.15 20.02 C23.98 12.86, 42.35 5.41, 49.69 2.39 C57.02 -0.63, 59.76 0.93, 60.15 1.9 M45.32 2.03 C54.02 -1.77, 64.28 -2.35, 73.8 -0.56 C83.32 1.22, 94.39 7.11, 102.42 12.72 C110.45 18.34, 117.43 24.63, 122 33.15 C126.58 41.67, 129.76 54.21, 129.87 63.84 C129.99 73.47, 127.82 83.16, 122.69 90.94 C117.57 98.72, 107.54 105.5, 99.11 110.52 C90.67 115.53, 81.92 119.97, 72.09 121.02 C62.27 122.07, 49.41 120.22, 40.14 116.82 C30.88 113.42, 22.72 107.97, 16.52 100.63 C10.31 93.29, 5.51 82.01, 2.92 72.78 C0.33 63.55, -1.34 54.43, 0.99 45.25 C3.31 36.07, 9.69 24.76, 16.87 17.73 C24.05 10.7, 39.39 5.33, 44.08 3.07 C48.78 0.82, 44.82 3.1, 45.04 4.19" stroke="#1e1e1e" stroke-width="1" fill="none"></path></g><g transform="translate(727.9567528962504 496.6252004725924) rotate(0 28.019973754882812 12.5)"><text x="28.019973754882812" y="0" font-family="Virgil, Segoe UI Emoji" font-size="20px" fill="#1e1e1e" text-anchor="middle" style="white-space: pre;" direction="ltr" dominant-baseline="text-before-edge">Speak</text></g><g stroke-linecap="round" transform="translate(897.6029411764722 459.5000000000001) rotate(0 65.00816993464048 60.55555555555554)"><path d="M42.06 3.22 C50.46 -0.57, 62.48 -0.74, 72.45 0.7 C82.41 2.14, 93.53 6.44, 101.85 11.85 C110.17 17.25, 117.73 25, 122.37 33.13 C127.01 41.27, 129.5 51.54, 129.67 60.67 C129.83 69.81, 128.17 79.74, 123.36 87.95 C118.56 96.16, 109.37 104.4, 100.84 109.95 C92.31 115.51, 81.9 119.95, 72.18 121.26 C62.46 122.57, 51.91 121.35, 42.5 117.81 C33.1 114.27, 22.42 107.12, 15.76 100.04 C9.1 92.96, 4.82 84.37, 2.53 75.33 C0.24 66.29, -0.34 55.1, 2.02 45.79 C4.39 36.49, 9.11 26.82, 16.73 19.49 C24.34 12.16, 41.41 4.87, 47.69 1.82 C53.96 -1.24, 54.04 0.1, 54.37 1.17 M63.68 -0.92 C73.02 -2.04, 82.65 2.48, 91.62 6.86 C100.59 11.24, 111.19 18.21, 117.49 25.37 C123.8 32.53, 128.08 40.72, 129.43 49.84 C130.78 58.97, 128.87 71.25, 125.58 80.11 C122.29 88.98, 116.8 96.38, 109.68 103.05 C102.56 109.72, 92.35 117.18, 82.85 120.15 C73.35 123.13, 62.53 123.16, 52.68 120.89 C42.83 118.62, 31.55 112.8, 23.76 106.53 C15.97 100.26, 10.1 91.92, 5.96 83.28 C1.81 74.63, -1.76 63.81, -1.1 54.66 C-0.44 45.51, 4.12 36.18, 9.93 28.4 C15.74 20.61, 24.93 12.83, 33.77 7.96 C42.6 3.09, 58.16 0.38, 62.96 -0.82 C67.76 -2.03, 62.81 -0.66, 62.57 0.72" stroke="#1e1e1e" stroke-width="1" fill="none"></path></g><g transform="translate(924.7234256664339 495.2363115837036) rotate(0 37.91996765136719 25)"><text x="37.91996765136719" y="0" font-family="Virgil, Segoe UI Emoji" font-size="20px" fill="#1e1e1e" text-anchor="middle" style="white-space: pre;" direction="ltr" dominant-baseline="text-before-edge">Release</text><text x="37.91996765136719" y="25" font-family="Virgil, Segoe UI Emoji" font-size="20px" fill="#1e1e1e" text-anchor="middle" style="white-space: pre;" direction="ltr" dominant-baseline="text-before-edge">Key</text></g><g stroke-linecap="round" transform="translate(1144.2696078431381 449.5000000000002) rotate(0 65.00816993464048 78)"><path d="M42.76 4.05 C50.89 -0.74, 62.64 -1.38, 72.17 0.05 C81.71 1.47, 91.88 6.63, 99.97 12.58 C108.06 18.54, 115.66 26.48, 120.72 35.77 C125.78 45.06, 129.2 56.97, 130.32 68.33 C131.44 79.68, 130.75 93, 127.44 103.91 C124.13 114.81, 117.37 125.84, 110.48 133.77 C103.6 141.69, 94.99 147.86, 86.15 151.48 C77.3 155.11, 66.56 156.55, 57.4 155.5 C48.25 154.46, 39.11 151.05, 31.2 145.23 C23.29 139.41, 14.96 130.3, 9.93 120.57 C4.9 110.84, 2.22 98.07, 1.02 86.85 C-0.19 75.63, -0.19 63.91, 2.69 53.26 C5.56 42.61, 10.85 31.25, 18.26 22.93 C25.66 14.61, 41.35 6.6, 47.11 3.33 C52.86 0.06, 52.57 2.09, 52.78 3.3 M51.21 0.02 C59.49 -3.23, 71.53 -1.5, 80.91 1.44 C90.3 4.38, 100.41 10.19, 107.52 17.66 C114.63 25.14, 119.97 36.02, 123.6 46.3 C127.23 56.59, 129.38 68.04, 129.3 79.4 C129.22 90.75, 127.31 104.06, 123.12 114.44 C118.92 124.83, 111.84 134.87, 104.12 141.7 C96.41 148.53, 85.93 153.56, 76.81 155.41 C67.68 157.25, 58.38 155.6, 49.37 152.78 C40.36 149.97, 29.88 145.54, 22.75 138.52 C15.62 131.51, 10.5 121.1, 6.58 110.69 C2.66 100.27, -0.87 87.67, -0.78 76.03 C-0.69 64.38, 2.71 50.75, 7.12 40.83 C11.54 30.91, 17.95 23.11, 25.71 16.52 C33.47 9.92, 49.28 3.27, 53.69 1.27 C58.1 -0.73, 52.33 3.37, 52.19 4.52" stroke="#1e1e1e" stroke-width="1" fill="none"></path></g><g transform="translate(1172.7700895865178 477.34567106744953) rotate(0 36.53997039794922 50)"><text x="36.53997039794922" y="0" font-family="Virgil, Segoe UI Emoji" font-size="20px" fill="#1e1e1e" text-anchor="middle" style="white-space: pre;" direction="ltr" dominant-baseline="text-before-edge">Play </text><text x="36.53997039794922" y="25" font-family="Virgil, Segoe UI Emoji" font-size="20px" fill="#1e1e1e" text-anchor="middle" style="white-space: pre;" direction="ltr" dominant-baseline="text-before-edge">Audio </text><text x="36.53997039794922" y="50" font-family="Virgil, Segoe UI Emoji" font-size="20px" fill="#1e1e1e" text-anchor="middle" style="white-space: pre;" direction="ltr" dominant-baseline="text-before-edge">automa</text><text x="36.53997039794922" y="75" font-family="Virgil, Segoe UI Emoji" font-size="20px" fill="#1e1e1e" text-anchor="middle" style="white-space: pre;" direction="ltr" dominant-baseline="text-before-edge">tically</text></g><g stroke-linecap="round"><g stroke-opacity="0.6" fill-opacity="0.6" transform="translate(342.61111111111074 114.5) rotate(0 -19.100673488610084 1.0237753875833278)"><path d="M-0.66 0.91 C-6.76 1.24, -31.32 1.16, -37.54 0.98" stroke="#1e1e1e" stroke-width="1.5" fill="none" stroke-dasharray="8 9"></path></g><g stroke-opacity="0.6" fill-opacity="0.6" transform="translate(342.61111111111074 114.5) rotate(0 -19.100673488610084 1.0237753875833278)"><path d="M-18.28 -4.87 C-22.2 -4.25, -28.01 -1.39, -38.06 -0.48" stroke="#1e1e1e" stroke-width="1.5" fill="none"></path></g><g stroke-opacity="0.6" fill-opacity="0.6" transform="translate(342.61111111111074 114.5) rotate(0 -19.100673488610084 1.0237753875833278)"><path d="M-18.45 8.05 C-22.23 5.79, -27.99 5.75, -38.06 -0.48" stroke="#1e1e1e" stroke-width="1.5" fill="none"></path></g></g><mask></mask><g stroke-linecap="round"><g stroke-opacity="0.6" fill-opacity="0.6" transform="translate(347.0555555555551 151.10993679102194) rotate(0 -24.48242118474502 -1.2135327817793495)"><path d="M-0.9 1.06 C-8.77 0.57, -40.21 -2.94, -48.07 -3.48" stroke="#1e1e1e" stroke-width="1.5" fill="none" stroke-dasharray="8 9"></path></g><g stroke-opacity="0.6" fill-opacity="0.6" transform="translate(347.0555555555551 151.10993679102194) rotate(0 -24.48242118474502 -1.2135327817793495)"><path d="M-22.61 -8.33 C-30.25 -7.06, -33.66 -7.37, -47.59 -2.06" stroke="#1e1e1e" stroke-width="1.5" fill="none"></path></g><g stroke-opacity="0.6" fill-opacity="0.6" transform="translate(347.0555555555551 151.10993679102194) rotate(0 -24.48242118474502 -1.2135327817793495)"><path d="M-24.16 8.36 C-31.36 5.77, -34.41 1.58, -47.59 -2.06" stroke="#1e1e1e" stroke-width="1.5" fill="none"></path></g></g><mask></mask><g stroke-linecap="round"><g transform="translate(153.70444766244157 514.3670680848118) rotate(0 34.46024222054916 -0.5475152293992096)"><path d="M-0.7 0.95 C10.91 0.7, 57.81 -1.38, 69.62 -2.04 M1.13 0.4 C12.54 0.41, 57.04 -0.03, 68.42 -0.47" stroke="#1e1e1e" stroke-width="1" fill="none"></path></g><g transform="translate(153.70444766244157 514.3670680848118) rotate(0 34.46024222054916 -0.5475152293992096)"><path d="M42.04 9.6 C48.94 7.45, 55.6 2.43, 69.44 1.12 M40.68 11.28 C48.96 6.72, 56.62 4.41, 68.77 -0.29" stroke="#1e1e1e" stroke-width="1" fill="none"></path></g><g transform="translate(153.70444766244157 514.3670680848118) rotate(0 34.46024222054916 -0.5475152293992096)"><path d="M41.59 -10.91 C48.54 -6.97, 55.33 -5.88, 69.44 1.12 M40.23 -9.24 C48.83 -8.06, 56.61 -4.61, 68.77 -0.29" stroke="#1e1e1e" stroke-width="1" fill="none"></path></g></g><mask></mask><g stroke-linecap="round"><g transform="translate(364.7653964012893 523.0904995947989) rotate(0 44.026067687235695 -2.640878690359955)"><path d="M0.68 1.13 C15.39 0.09, 73.68 -5.12, 88.48 -6.41 M-0.43 0.68 C14.07 -0.18, 72.4 -4, 87.31 -5.05" stroke="#1e1e1e" stroke-width="1" fill="none"></path></g><g transform="translate(364.7653964012893 523.0904995947989) rotate(0 44.026067687235695 -2.640878690359955)"><path d="M61.75 6.37 C68.06 4.05, 76.44 -0.3, 86.23 -6.02 M60.45 6.3 C69.73 2.75, 80.99 -1.63, 86.46 -4.39" stroke="#1e1e1e" stroke-width="1" fill="none"></path></g><g transform="translate(364.7653964012893 523.0904995947989) rotate(0 44.026067687235695 -2.640878690359955)"><path d="M60.37 -14.1 C67.1 -9.93, 75.92 -7.76, 86.23 -6.02 M59.07 -14.18 C68.83 -9.83, 80.62 -6.32, 86.46 -4.39" stroke="#1e1e1e" stroke-width="1" fill="none"></path></g></g><mask></mask><g stroke-linecap="round"><g transform="translate(591.9520816954445 513.1415928213089) rotate(0 46.53421432983532 -0.892823632467298)"><path d="M1.17 -1 C16.15 -1.3, 75.63 -2.83, 90.64 -2.88 M0.33 1.1 C15.58 0.98, 77.76 -1.19, 92.74 -1.95" stroke="#1e1e1e" stroke-width="1" fill="none"></path></g><g transform="translate(591.9520816954445 513.1415928213089) rotate(0 46.53421432983532 -0.892823632467298)"><path d="M63.34 7.51 C73.3 4.12, 86.02 -0.6, 92.42 -2.92 M64.66 10.18 C76.77 4.63, 87.37 1.27, 92.97 -2.82" stroke="#1e1e1e" stroke-width="1" fill="none"></path></g><g transform="translate(591.9520816954445 513.1415928213089) rotate(0 46.53421432983532 -0.892823632467298)"><path d="M62.5 -12.99 C72.59 -8.9, 85.61 -6.14, 92.42 -2.92 M63.82 -10.32 C76.43 -7.75, 87.36 -2.98, 92.97 -2.82" stroke="#1e1e1e" stroke-width="1" fill="none"></path></g></g><mask></mask><g stroke-linecap="round"><g transform="translate(821.9147604732708 511.02882245402975) rotate(0 34.679053435651326 0.3013234026987561)"><path d="M0.85 0.48 C12.57 0.46, 58.37 -0.38, 69.52 -0.21 M-0.16 -0.31 C11.52 -0.19, 57.2 0.92, 68.91 0.92" stroke="#1e1e1e" stroke-width="1" fill="none"></path></g><g transform="translate(821.9147604732708 511.02882245402975) rotate(0 34.679053435651326 0.3013234026987561)"><path d="M41.38 11.86 C45.93 6.43, 55.43 5.41, 70.49 0.07 M40.31 10.01 C52.17 7.2, 63.48 2.63, 68.44 1.45" stroke="#1e1e1e" stroke-width="1" fill="none"></path></g><g transform="translate(821.9147604732708 511.02882245402975) rotate(0 34.679053435651326 0.3013234026987561)"><path d="M41.66 -8.66 C46.12 -9.28, 55.56 -5.49, 70.49 0.07 M40.58 -10.51 C52.36 -5.29, 63.56 -1.84, 68.44 1.45" stroke="#1e1e1e" stroke-width="1" fill="none"></path></g></g><mask></mask><g stroke-linecap="round"><g transform="translate(1027.9897811919632 511.5746287770585) rotate(0 54.787996895198376 -2.329255936262882)"><path d="M-0.74 -0.09 C17.75 -0.98, 91.93 -4.16, 110.31 -4.57 M1.08 -1.18 C19.52 -2.02, 91.8 -3.03, 109.75 -3.56" stroke="#1e1e1e" stroke-width="1" fill="none"></path></g><g transform="translate(1027.9897811919632 511.5746287770585) rotate(0 54.787996895198376 -2.329255936262882)"><path d="M81.63 8.52 C87.04 4.75, 97.43 2.69, 111.19 -1.56 M81.46 7.19 C86.75 5.13, 92.55 2.28, 108.92 -3.48" stroke="#1e1e1e" stroke-width="1" fill="none"></path></g><g transform="translate(1027.9897811919632 511.5746287770585) rotate(0 54.787996895198376 -2.329255936262882)"><path d="M81.2 -11.99 C86.84 -10.62, 97.34 -7.53, 111.19 -1.56 M81.03 -13.33 C86.53 -11.05, 92.43 -9.57, 108.92 -3.48" stroke="#1e1e1e" stroke-width="1" fill="none"></path></g></g><mask></mask><g stroke-linecap="round" transform="translate(1419.833333333333 455.611111111111) rotate(0 71.66666666666663 71.1111111111112)"><path d="M73.88 0.1 C83.63 -0.83, 94.86 3.09, 103.85 7.81 C112.85 12.53, 121.46 20.14, 127.86 28.43 C134.25 36.72, 139.93 47.59, 142.22 57.54 C144.52 67.48, 144.29 78.19, 141.63 88.1 C138.96 98.01, 133.12 109.07, 126.23 116.99 C119.34 124.91, 109.62 131.38, 100.28 135.6 C90.93 139.82, 80.19 142.47, 70.14 142.31 C60.08 142.15, 49.14 139.21, 39.96 134.63 C30.78 130.05, 21.5 123.1, 15.05 114.82 C8.61 106.53, 3.34 95.16, 1.3 84.93 C-0.74 74.71, 0.36 63.36, 2.83 53.45 C5.3 43.54, 9.48 33.23, 16.12 25.47 C22.76 17.7, 32.02 10.95, 42.65 6.86 C53.29 2.77, 72.97 1.74, 79.93 0.93 C86.88 0.11, 84.52 0.9, 84.39 1.97 M48.61 4.21 C57.47 0.23, 69.49 0.33, 79.76 1.32 C90.03 2.31, 101.31 4.6, 110.22 10.16 C119.13 15.71, 127.71 25.62, 133.22 34.67 C138.73 43.71, 142.29 54.46, 143.26 64.43 C144.24 74.39, 142.44 84.97, 139.07 94.46 C135.7 103.94, 130.52 113.85, 123.02 121.34 C115.52 128.84, 103.88 135.85, 94.08 139.41 C84.27 142.97, 74.48 144.34, 64.17 142.69 C53.85 141.05, 40.91 135.04, 32.18 129.53 C23.44 124.01, 17.25 118.28, 11.77 109.61 C6.29 100.95, 0.43 88.17, -0.72 77.53 C-1.87 66.89, 1.21 55.28, 4.87 45.79 C8.53 36.29, 13.76 27.46, 21.25 20.58 C28.74 13.7, 45.34 7.27, 49.83 4.5 C54.33 1.74, 47.99 3.23, 48.24 3.98" stroke="#1e1e1e" stroke-width="1" fill="none"></path></g><g transform="translate(1474.2240231702372 514.4390733378453) rotate(0 17.099990844726562 12.5)"><text x="17.099990844726562" y="0" font-family="Virgil, Segoe UI Emoji" font-size="20px" fill="#1e1e1e" text-anchor="middle" style="white-space: pre;" direction="ltr" dominant-baseline="text-before-edge">End</text></g><g stroke-linecap="round"><g transform="translate(1291.6054167469897 532.2888128755274) rotate(0 63.139587757544746 -2.7997813335246065)"><path d="M-0.8 -0.2 C20.23 -0.92, 105.99 -4.79, 127.07 -5.4 M0.99 -1.35 C21.82 -1.86, 105.2 -3.65, 126.4 -4.41" stroke="#1e1e1e" stroke-width="1" fill="none"></path></g><g transform="translate(1291.6054167469897 532.2888128755274) rotate(0 63.139587757544746 -2.7997813335246065)"><path d="M98.17 7.48 C107.41 1.2, 120.55 -2.56, 126.32 -5.18 M99.04 6.54 C106.46 3.03, 116.36 -0.6, 126.64 -4.66" stroke="#1e1e1e" stroke-width="1" fill="none"></path></g><g transform="translate(1291.6054167469897 532.2888128755274) rotate(0 63.139587757544746 -2.7997813335246065)"><path d="M97.6 -13.03 C106.88 -11.55, 120.22 -7.55, 126.32 -5.18 M98.47 -13.97 C106.04 -10.91, 116.12 -7.96, 126.64 -4.66" stroke="#1e1e1e" stroke-width="1" fill="none"></path></g></g><mask></mask><g stroke-linecap="round"><g transform="translate(1464.8333333333326 597.8333333333333) rotate(0 -670.2051660140937 55.29058430397356)"><path d="M1.12 0.14 C-22.39 21.27, -82.69 103.92, -141.32 126.08 C-199.96 148.23, -184.28 131.88, -350.69 133.08 C-517.11 134.28, -990.66 138.79, -1139.82 133.27 C-1288.99 127.75, -1212.08 126.96, -1245.7 99.96 C-1279.32 72.96, -1325.61 -7.21, -1341.53 -28.72 M0.25 -0.83 C-23.32 20.51, -83.12 104.79, -141.8 127.3 C-200.47 149.82, -185.44 133.6, -351.82 134.26 C-518.2 134.92, -990.83 137.02, -1140.07 131.26 C-1289.31 125.51, -1213.9 126.02, -1247.25 99.74 C-1280.59 73.47, -1324.61 -5.22, -1340.14 -26.39" stroke="#1e1e1e" stroke-width="1" fill="none"></path></g><g transform="translate(1464.8333333333326 597.8333333333333) rotate(0 -670.2051660140937 55.29058430397356)"><path d="M-1315.92 -6.87 C-1323.68 -14.3, -1329.77 -19.7, -1338.39 -26.63 M-1315.92 -9.14 C-1321.98 -12.94, -1326.2 -16.4, -1340.23 -27.09" stroke="#1e1e1e" stroke-width="1" fill="none"></path></g><g transform="translate(1464.8333333333326 597.8333333333333) rotate(0 -670.2051660140937 55.29058430397356)"><path d="M-1333.11 4.33 C-1336.04 -6.36, -1337.37 -14.86, -1338.39 -26.63 M-1333.11 2.07 C-1335.66 -3.94, -1336.37 -9.69, -1340.23 -27.09" stroke="#1e1e1e" stroke-width="1" fill="none"></path></g></g><mask></mask><g stroke-linecap="round" transform="translate(1359.8333333333326 10) rotate(0 144.9999999999999 154.5)"><path d="M32 0 M32 0 C113.7 -0.02, 195.83 0.97, 258 0 M32 0 C86.17 -1.87, 138.94 -0.75, 258 0 M258 0 C281.18 -1.09, 290.32 11.12, 290 32 M258 0 C279.1 1.49, 289.41 11.43, 290 32 M290 32 C289.72 93.02, 288.93 155.89, 290 277 M290 32 C289.41 107.43, 290.89 181.69, 290 277 M290 277 C290.87 299.29, 279.31 307.54, 258 309 M290 277 C288.97 300.32, 278.51 306.71, 258 309 M258 309 C192.32 309.39, 127.1 307.49, 32 309 M258 309 C191.31 308.86, 124.19 309.98, 32 309 M32 309 C9.48 307.08, 0.64 299.21, 0 277 M32 309 C12.72 307.45, 0.41 298.32, 0 277 M0 277 C-1.18 223.41, -0.13 168.76, 0 32 M0 277 C0.49 223.77, -0.39 169.89, 0 32 M0 32 C-1.95 12.11, 9.13 1.99, 32 0 M0 32 C1.74 8.67, 12.53 0.73, 32 0" stroke="#1e1e1e" stroke-width="1" fill="none"></path></g><g transform="translate(1418.4434102376295 77) rotate(0 86.38992309570301 87.5)"><text x="86.38992309570312" y="0" font-family="Virgil, Segoe UI Emoji" font-size="20px" fill="#1e1e1e" text-anchor="middle" style="white-space: pre;" direction="ltr" dominant-baseline="text-before-edge">class/AudioPlayer</text><text x="86.38992309570312" y="25" font-family="Virgil, Segoe UI Emoji" font-size="20px" fill="#1e1e1e" text-anchor="middle" style="white-space: pre;" direction="ltr" dominant-baseline="text-before-edge">(outputDevices)</text><text x="86.38992309570312" y="50" font-family="Virgil, Segoe UI Emoji" font-size="20px" fill="#1e1e1e" text-anchor="middle" style="white-space: pre;" direction="ltr" dominant-baseline="text-before-edge"></text><text x="86.38992309570312" y="75" font-family="Virgil, Segoe UI Emoji" font-size="20px" fill="#1e1e1e" text-anchor="middle" style="white-space: pre;" direction="ltr" dominant-baseline="text-before-edge">open_stream</text><text x="86.38992309570312" y="100" font-family="Virgil, Segoe UI Emoji" font-size="20px" fill="#1e1e1e" text-anchor="middle" style="white-space: pre;" direction="ltr" dominant-baseline="text-before-edge">close_stream</text><text x="86.38992309570312" y="125" font-family="Virgil, Segoe UI Emoji" font-size="20px" fill="#1e1e1e" text-anchor="middle" style="white-space: pre;" direction="ltr" dominant-baseline="text-before-edge">close_all_stream</text><text x="86.38992309570312" y="150" font-family="Virgil, Segoe UI Emoji" font-size="20px" fill="#1e1e1e" text-anchor="middle" style="white-space: pre;" direction="ltr" dominant-baseline="text-before-edge">playAll</text></g></svg>